{"title":"CSI New York S07E14 HDTV XviD-LOL {TheCloon}","uid":6169889,"size":365623104,"categoryP":"video","categoryS":"tv_shows","magnet":"?xt=urn:btih:60d46550a9f13e4c0017bde834c0f5ec325aea87&amp;dn=CSI+New+York+S07E14+HDTV+XviD-LOL+%7BTheCloon%7D&amp;tr=udp%3A%2F%2Ftracker.openbittorrent.com%3A80&amp;tr=udp%3A%2F%2Fopen.demonii.com%3A1337&amp;tr=udp%3A%2F%2Ftracker.coppersurfer.tk%3A6969&amp;tr=udp%3A%2F%2Fexodus.desync.com%3A6969","seeders":0,"leechers":1,"uploader":"TheCloon","files":4,"time":1297529329,"description":"###\n\nCSI New York S07E14 HDTV XviD-LOL\n\n###\n\nPlot:\n\n154: 7x14 -- Smooth Criminal (Feb/11/2011)\nWhen the CSIs track down a suave and charming hitman, their investigation uncovers a conspiracy with far-reaching implications. \n\n###\n\n[code]\nFormat                           : AVI\nFormat/Info                      : Audio Video Interleave\nFile size                        : 349 MiB\nDuration                         : 42mn 36s\nOverall bit rate                 : 1 144 Kbps\nWriting application              : transcode-1.0.6\n\nVideo\nID                               : 0\nFormat                           : MPEG-4 Visual\nFormat profile                   : Advanced Simple@L5\nFormat settings, BVOP            : 2\nFormat settings, QPel            : No\nFormat settings, GMC             : No warppoints\nFormat settings, Matrix          : Default (H.263)\nCodec ID                         : XVID\nCodec ID/Hint                    : XviD\nDuration                         : 42mn 36s\nBit rate                         : 1 005 Kbps\nWidth                            : 624 pixels\nHeight                           : 352 pixels\nDisplay aspect ratio             : 16:9\nFrame rate                       : 23.976 fps\nColor space                      : YUV\nChroma subsampling               : 4:2:0\nBit depth                        : 8 bits\nScan type                        : Progressive\nCompression mode                 : Lossy\nBits/(Pixel*Frame)               : 0.191\nStream size                      : 306 MiB (88%)\nWriting library                  : XviD 1.2.1 (UTC 2008-12-04)\n\nAudio\nID                               : 1\nFormat                           : MPEG Audio\nFormat version                   : Version 1\nFormat profile                   : Layer 3\nMode                             : Joint stereo\nMode extension                   : MS Stereo\nCodec ID                         : 55\nCodec ID/Hint                    : MP3\nDuration                         : 42mn 36s\nBit rate mode                    : Variable\nBit rate                         : 128 Kbps\nChannel(s)                       : 2 channels\nSampling rate                    : 48.0 KHz\nCompression mode                 : Lossy\nStream size                      : 38.3 MiB (11%)\nAlignment                        : Aligned on interleaves\nInterleave, duration             : 24 ms (0.58 video frame)\nWriting library                  : LAME3.90.\nEncoding settings                : -m j -V 4 -q 2 -lowpass 17.6 --abr 128\n[/code]","torrent":{"xt":"urn:btih:60d46550a9f13e4c0017bde834c0f5ec325aea87","amp;dn":"CSI+New+York+S07E14+HDTV+XviD-LOL+%7BTheCloon%7D","amp;tr":["udp%3A%2F%2Ftracker.openbittorrent.com%3A80","udp%3A%2F%2Fopen.demonii.com%3A1337","udp%3A%2F%2Ftracker.coppersurfer.tk%3A6969","udp%3A%2F%2Fexodus.desync.com%3A6969"],"infoHash":"60d46550a9f13e4c0017bde834c0f5ec325aea87","infoHashBuffer":{"type":"Buffer","data":[96,212,101,80,169,241,62,76,0,23,189,232,52,192,245,236,50,90,234,135]},"announce":[],"urlList":[]}}